<svg width="24" height="24" viewBox="0 0 24 24" fill="none" xmlns="http://www.w3.org/2000/svg">
<path fill-rule="evenodd" clip-rule="evenodd" d="M0.857178 6C0.857178 5.52661 1.24093 5.14286 1.71432 5.14286H22.2857C22.7591 5.14286 23.1429 5.52661 23.1429 6C23.1429 6.47339 22.7591 6.85714 22.2857 6.85714H1.71432C1.24093 6.85714 0.857178 6.47339 0.857178 6Z" fill="black"/>
<path fill-rule="evenodd" clip-rule="evenodd" d="M3.42861 6C3.42861 5.52661 3.81236 5.14286 4.28575 5.14286H19.7143C20.1877 5.14286 20.5715 5.52661 20.5715 6V21.4286C20.5715 22.1106 20.3005 22.7646 19.8183 23.2468C19.3361 23.7291 18.682 24 18 24H6.00003C5.31805 24 4.664 23.7291 4.18176 23.2468C3.69952 22.7646 3.42861 22.1106 3.42861 21.4286V6ZM5.14289 6.85714V21.4286C5.14289 21.6559 5.2332 21.8739 5.39394 22.0347C5.55469 22.1954 5.77271 22.2857 6.00003 22.2857H18C18.2274 22.2857 18.4454 22.1954 18.6061 22.0347C18.7669 21.8739 18.8572 21.6559 18.8572 21.4286V6.85714H5.14289Z" fill="black"/>
<path fill-rule="evenodd" clip-rule="evenodd" d="M12 1.71429C11.0907 1.71429 10.2187 2.07551 9.57567 2.71849C8.93269 3.36147 8.57146 4.23354 8.57146 5.14286V6C8.57146 6.47339 8.18771 6.85714 7.71432 6.85714C7.24093 6.85714 6.85718 6.47339 6.85718 6V5.14286C6.85718 3.77889 7.39901 2.47078 8.36349 1.50631C9.32796 0.541835 10.6361 0 12 0C13.364 0 14.6721 0.541835 15.6366 1.50631C16.6011 2.47078 17.1429 3.77889 17.1429 5.14286V6C17.1429 6.47339 16.7591 6.85714 16.2857 6.85714C15.8124 6.85714 15.4286 6.47339 15.4286 6V5.14286C15.4286 4.23354 15.0674 3.36147 14.4244 2.71849C13.7814 2.07551 12.9093 1.71429 12 1.71429Z" fill="black"/>
<path fill-rule="evenodd" clip-rule="evenodd" d="M9.42861 8.57143C9.90199 8.57143 10.2857 8.95518 10.2857 9.42857V18.8571C10.2857 19.3305 9.90199 19.7143 9.42861 19.7143C8.95522 19.7143 8.57146 19.3305 8.57146 18.8571V9.42857C8.57146 8.95518 8.95522 8.57143 9.42861 8.57143Z" fill="black"/>
<path fill-rule="evenodd" clip-rule="evenodd" d="M14.5715 8.57143C15.0448 8.57143 15.4286 8.95518 15.4286 9.42857V18.8571C15.4286 19.3305 15.0448 19.7143 14.5715 19.7143C14.0981 19.7143 13.7143 19.3305 13.7143 18.8571V9.42857C13.7143 8.95518 14.0981 8.57143 14.5715 8.57143Z" fill="black"/>
</svg>
