<svg width="24" height="24" viewBox="0 0 24 24" fill="none" xmlns="http://www.w3.org/2000/svg">
<g clip-path="url(#clip0_341_11287)">
<path fill-rule="evenodd" clip-rule="evenodd" d="M0 23.143C0 22.6696 0.383756 22.2859 0.857143 22.2859H19.7143C20.1877 22.2859 20.5714 22.6696 20.5714 23.143C20.5714 23.6164 20.1877 24.0002 19.7143 24.0002H0.857143C0.383756 24.0002 0 23.6164 0 23.143Z" fill="black"/>
<path fill-rule="evenodd" clip-rule="evenodd" d="M19.6114 1.70452C19.4983 1.70452 19.3862 1.72692 19.2818 1.77044C19.1773 1.81396 19.0825 1.87772 19.0029 1.95806L18.9995 1.96146L7.65806 13.2692L7.04277 17.0101L10.726 16.3471L22.0387 5.0007L22.0421 4.99732C22.1225 4.91764 22.1862 4.82283 22.2297 4.71838C22.2733 4.61393 22.2957 4.5019 22.2957 4.38875C22.2957 4.27559 22.2733 4.16356 22.2297 4.05911C22.1862 3.95466 22.1225 3.85986 22.0421 3.78017L22.0396 3.77769L20.2225 1.96055L20.22 1.95806C20.1403 1.87772 20.0455 1.81396 19.9411 1.77044C19.8366 1.72692 19.7246 1.70452 19.6114 1.70452ZM18.6225 0.187995C18.9359 0.0574471 19.272 -0.00976562 19.6114 -0.00976562C19.9509 -0.00976562 20.287 0.0574468 20.6003 0.187995C20.9131 0.318283 21.197 0.509081 21.4357 0.749419C21.4362 0.749899 21.4367 0.750379 21.4371 0.750859L23.2493 2.56303C23.2498 2.56354 23.2503 2.56404 23.2508 2.56455C23.4911 2.80328 23.6819 3.08715 23.8122 3.39983C23.9427 3.71319 24.0099 4.04929 24.0099 4.38875C24.0099 4.72821 23.9427 5.06431 23.8122 5.37766C23.682 5.69021 23.4913 5.97396 23.2512 6.21263C23.2505 6.21324 23.2499 6.21385 23.2493 6.21446L11.7498 17.7482C11.6261 17.8724 11.4672 17.9556 11.2947 17.9866L6.15185 18.9123C5.8778 18.9617 5.59687 18.8748 5.3985 18.6794C5.20012 18.484 5.10903 18.2044 5.15422 17.9296L6.01136 12.7182C6.04053 12.5409 6.12469 12.3772 6.25195 12.2503L17.7857 0.750859C17.7863 0.750243 17.7869 0.749627 17.7875 0.749012C18.0262 0.508864 18.31 0.318209 18.6225 0.187995Z" fill="black"/>
</g>
<defs>
<clipPath id="clip0_341_11287">
<rect width="24" height="24" fill="white"/>
</clipPath>
</defs>
</svg>
