<svg width="16" height="16" viewBox="0 0 16 16" fill="none" xmlns="http://www.w3.org/2000/svg">
<path fill-rule="evenodd" clip-rule="evenodd" d="M8 4C6.73764 4 5.71429 5.02335 5.71429 6.28571C5.71429 7.54808 6.73764 8.57143 8 8.57143C9.26237 8.57143 10.2857 7.54808 10.2857 6.28571C10.2857 5.02335 9.26237 4 8 4ZM4.57143 6.28571C4.57143 4.39217 6.10645 2.85714 8 2.85714C9.89355 2.85714 11.4286 4.39217 11.4286 6.28571C11.4286 8.17926 9.89355 9.71428 8 9.71428C6.10645 9.71428 4.57143 8.17926 4.57143 6.28571Z" fill={color}/>
<path fill-rule="evenodd" clip-rule="evenodd" d="M3.83886 11.8574C4.98756 10.8428 6.46738 10.2829 8 10.2829C9.53262 10.2829 11.0124 10.8428 12.1611 11.8574C12.3977 12.0663 12.4201 12.4275 12.2111 12.664C12.0022 12.9005 11.6411 12.9229 11.4046 12.714C10.4647 11.8839 9.25396 11.4257 8 11.4257C6.74604 11.4257 5.53528 11.8839 4.59543 12.714C4.35889 12.9229 3.99778 12.9005 3.78886 12.664C3.57993 12.4275 3.60232 12.0663 3.83886 11.8574Z" fill={color}/>
<path fill-rule="evenodd" clip-rule="evenodd" d="M15.4286 11.4286C15.7442 11.4286 16 11.6844 16 12V14.2857C16 14.7404 15.8194 15.1764 15.4979 15.4979C15.1764 15.8194 14.7404 16 14.2857 16H12C11.6844 16 11.4286 15.7442 11.4286 15.4286C11.4286 15.113 11.6844 14.8571 12 14.8571H14.2857C14.4373 14.8571 14.5826 14.7969 14.6898 14.6898C14.7969 14.5826 14.8571 14.4373 14.8571 14.2857V12C14.8571 11.6844 15.113 11.4286 15.4286 11.4286Z" fill={color}/>
<path fill-rule="evenodd" clip-rule="evenodd" d="M11.4286 0.571429C11.4286 0.255837 11.6844 0 12 0H14.2857C14.7404 0 15.1764 0.180612 15.4979 0.502103C15.8194 0.823593 16 1.25963 16 1.71429V4C16 4.31559 15.7442 4.57143 15.4286 4.57143C15.113 4.57143 14.8571 4.31559 14.8571 4V1.71429C14.8571 1.56273 14.7969 1.41739 14.6898 1.31022C14.5826 1.20306 14.4373 1.14286 14.2857 1.14286H12C11.6844 1.14286 11.4286 0.88702 11.4286 0.571429Z" fill={color}/>
<path fill-rule="evenodd" clip-rule="evenodd" d="M1.71429 1.14286C1.56273 1.14286 1.41739 1.20306 1.31022 1.31022C1.20306 1.41739 1.14286 1.56273 1.14286 1.71429V4C1.14286 4.31559 0.88702 4.57143 0.571429 4.57143C0.255837 4.57143 0 4.31559 0 4V1.71429C0 1.25963 0.180612 0.823594 0.502103 0.502103C0.823594 0.180612 1.25963 0 1.71429 0H4C4.31559 0 4.57143 0.255837 4.57143 0.571429C4.57143 0.88702 4.31559 1.14286 4 1.14286H1.71429Z" fill={color}/>
<path fill-rule="evenodd" clip-rule="evenodd" d="M0.571429 11.4286C0.88702 11.4286 1.14286 11.6844 1.14286 12V14.2857C1.14286 14.4373 1.20306 14.5826 1.31022 14.6898C1.41739 14.7969 1.56273 14.8571 1.71429 14.8571H4C4.31559 14.8571 4.57143 15.113 4.57143 15.4286C4.57143 15.7442 4.31559 16 4 16H1.71429C1.25963 16 0.823593 15.8194 0.502103 15.4979C0.180612 15.1764 0 14.7404 0 14.2857V12C0 11.6844 0.255837 11.4286 0.571429 11.4286Z" fill={color}/>
</svg>
