<svg width="12" height="12" viewBox="0 0 12 12" fill="none" xmlns="http://www.w3.org/2000/svg">
<g clip-path="url(#clip0_501_1469)">
<path fill-rule="evenodd" clip-rule="evenodd" d="M9.35148e-06 1.50084C9.35148e-06 1.26414 0.191887 1.07227 0.428581 1.07227H11.5714C11.8081 1.07227 12 1.26414 12 1.50084V10.5008C12 10.7375 11.8081 10.9294 11.5714 10.9294H0.428581C0.191887 10.9294 9.35148e-06 10.7375 9.35148e-06 10.5008V1.50084ZM0.857152 1.92941V10.0723H11.1429V1.92941H0.857152Z" fill={color}/>
<path fill-rule="evenodd" clip-rule="evenodd" d="M0.101051 2.30872C0.253703 2.12783 0.524092 2.10494 0.704982 2.25759L5.72355 6.49274C5.80088 6.558 5.89883 6.59382 6.00001 6.59382C6.10119 6.59382 6.19912 6.55802 6.27644 6.49276L11.295 2.25759C11.4759 2.10494 11.7463 2.12783 11.899 2.30872C12.0516 2.48961 12.0287 2.76 11.8478 2.91265L6.8293 7.14777C6.59733 7.34355 6.30355 7.45097 6.00001 7.45097C5.69647 7.45097 5.40272 7.34357 5.17075 7.1478L0.15218 2.91265C-0.02871 2.76 -0.0516014 2.48961 0.101051 2.30872Z" fill={color}/>
</g>
<defs>
<clipPath id="clip0_501_1469">
<rect width="12" height="12" fill="white"/>
</clipPath>
</defs>
</svg>
