<svg width="16" height="16" viewBox="0 0 16 16" xmlns="http://www.w3.org/2000/svg">
<g clip-path="url(#clip0_501_1451)">
<path fill-rule="evenodd" clip-rule="evenodd" d="M8.00012 5.71381C6.89555 5.71381 6.00012 6.60924 6.00012 7.71381C6.00012 8.81838 6.89555 9.71381 8.00012 9.71381C9.10469 9.71381 10.0001 8.81838 10.0001 7.71381C10.0001 6.60924 9.10469 5.71381 8.00012 5.71381ZM4.85726 7.71381C4.85726 5.97806 6.26437 4.57095 8.00012 4.57095C9.73587 4.57095 11.143 5.97806 11.143 7.71381C11.143 9.44956 9.73587 10.8567 8.00012 10.8567C6.26437 10.8567 4.85726 9.44956 4.85726 7.71381Z" fill={color}/>
<path fill-rule="evenodd" clip-rule="evenodd" d="M5.02573 12.905C5.92171 12.3588 6.95078 12.0699 8.00012 12.0699C9.04945 12.0699 10.0785 12.3588 10.9745 12.905C11.8705 13.4512 12.5988 14.2336 13.0795 15.1663C13.2241 15.4468 13.1139 15.7915 12.8333 15.936C12.5528 16.0806 12.2082 15.9704 12.0636 15.6899C11.679 14.9437 11.0964 14.3178 10.3796 13.8808C9.66285 13.4439 8.83959 13.2127 8.00012 13.2127C7.16065 13.2127 6.33739 13.4439 5.62061 13.8808C4.90383 14.3178 4.32121 14.9437 3.93663 15.6899C3.79205 15.9704 3.44743 16.0806 3.1669 15.936C2.88638 15.7915 2.77617 15.4468 2.92075 15.1663C3.40148 14.2336 4.12976 13.4512 5.02573 12.905Z" fill={color}/>
<path fill-rule="evenodd" clip-rule="evenodd" d="M3.97283 1.1707C5.1954 0.410627 6.60626 0.0078125 8.04583 0.0078125C9.48541 0.0078125 10.8963 0.410627 12.1188 1.1707C13.3414 1.93077 14.3269 3.01777 14.9639 4.30876C15.6008 5.59974 15.8639 7.04321 15.7232 8.4759C15.5825 9.90859 15.0438 11.2733 14.1679 12.4158C13.9759 12.6662 13.6172 12.7136 13.3667 12.5216C13.1163 12.3296 13.0689 11.9709 13.2609 11.7204C14.0071 10.7472 14.466 9.58466 14.5858 8.36422C14.7056 7.14379 14.4816 5.91417 13.939 4.81444C13.3964 3.7147 12.5569 2.78874 11.5154 2.14128C10.474 1.49381 9.27214 1.15067 8.04583 1.15067C6.81953 1.15067 5.61769 1.49381 4.57624 2.14128C3.53479 2.78874 2.69529 3.7147 2.15269 4.81444C1.61008 5.91417 1.38602 7.14379 1.50585 8.36422C1.62568 9.58466 2.08461 10.7472 2.83075 11.7204C3.02277 11.9709 2.97539 12.3296 2.72494 12.5216C2.47449 12.7136 2.11579 12.6662 1.92378 12.4158C1.04788 11.2733 0.509132 9.90859 0.368464 8.4759C0.227796 7.04321 0.490821 5.59974 1.12779 4.30876C1.76476 3.01777 2.75026 1.93077 3.97283 1.1707Z" fill={color}/>
</g>
<defs>
<clipPath id="clip0_501_1451">
<rect width="16" height="16" fill="white"/>
</clipPath>
</defs>
</svg>
