<svg width="16" height="16" viewBox="0 0 16 16" xmlns="http://www.w3.org/2000/svg">
<path fillRule="evenodd" clipRule="evenodd" d="M9.14286 8C9.14286 7.36882 9.65453 6.85714 10.2857 6.85714H14.8571C15.4883 6.85714 16 7.36882 16 8V14.8571C16 15.4883 15.4883 16 14.8571 16H10.2857C9.65453 16 9.14286 15.4883 9.14286 14.8571V8ZM14.8571 8H10.2857V14.8571H14.8571V8Z" fill={color}/>
<path fillRule="evenodd" clipRule="evenodd" d="M9.14286 1.14286C9.14286 0.511675 9.65453 0 10.2857 0H14.8571C15.4883 0 16 0.511675 16 1.14286V3.44C16 4.07118 15.4883 4.58286 14.8571 4.58286H10.2857C9.65453 4.58286 9.14286 4.07118 9.14286 3.44V1.14286ZM14.8571 1.14286L10.2857 1.14286V3.44H14.8571V1.14286Z" fill={color}/>
<path fillRule="evenodd" clipRule="evenodd" d="M0 1.14286C0 0.511675 0.511675 0 1.14286 0H5.71429C6.34547 0 6.85714 0.511675 6.85714 1.14286V8C6.85714 8.63118 6.34547 9.14286 5.71429 9.14286H1.14286C0.511675 9.14286 0 8.63118 0 8V1.14286ZM5.71429 1.14286H1.14286V8H5.71429V1.14286Z" fill={color}/>
<path fillRule="evenodd" clipRule="evenodd" d="M0 12.56C0 11.9288 0.511675 11.4171 1.14286 11.4171H5.71429C6.34547 11.4171 6.85714 11.9288 6.85714 12.56V14.8571C6.85714 15.4883 6.34547 16 5.71429 16H1.14286C0.511675 16 0 15.4883 0 14.8571V12.56ZM5.71429 12.56H1.14286V14.8571H5.71429V12.56Z" fill={color}/>
</svg>