<svg width="16" height="16" viewBox="0 0 16 16" fill="none" xmlns="http://www.w3.org/2000/svg" >
<path d="M3.71439 6.857C5.45014 6.857 6.85725 5.4499 6.85725 3.71415C6.85725 1.97839 5.45014 0.571289 3.71439 0.571289C1.97864 0.571289 0.571533 1.97839 0.571533 3.71415C0.571533 5.4499 1.97864 6.857 3.71439 6.857Z" stroke={color} stroke-width="1.1" stroke-linecap="round" stroke-linejoin="round"/>
<path d="M12.2859 6.857C14.0217 6.857 15.4288 5.4499 15.4288 3.71415C15.4288 1.97839 14.0217 0.571289 12.2859 0.571289C10.5502 0.571289 9.14307 1.97839 9.14307 3.71415C9.14307 5.4499 10.5502 6.857 12.2859 6.857Z" stroke={color} stroke-width="1.1" stroke-linecap="round" stroke-linejoin="round"/>
<path d="M3.71439 15.4283C5.45014 15.4283 6.85725 14.0212 6.85725 12.2854C6.85725 10.5497 5.45014 9.14258 3.71439 9.14258C1.97864 9.14258 0.571533 10.5497 0.571533 12.2854C0.571533 14.0212 1.97864 15.4283 3.71439 15.4283Z" stroke={color} stroke-width="1.1" stroke-linecap="round" stroke-linejoin="round"/>
<path d="M12.2859 15.4283C14.0217 15.4283 15.4288 14.0212 15.4288 12.2854C15.4288 10.5497 14.0217 9.14258 12.2859 9.14258C10.5502 9.14258 9.14307 10.5497 9.14307 12.2854C9.14307 14.0212 10.5502 15.4283 12.2859 15.4283Z" stroke={color} stroke-width="1.1" stroke-linecap="round" stroke-linejoin="round"/>
</svg>
