<svg width="64" height="65" viewBox="0 0 64 65" fill="none" xmlns="http://www.w3.org/2000/svg">
<g clip-path="url(#clip0_158_13746)">
<path fill-rule="evenodd" clip-rule="evenodd" d="M32 5.07143C16.8516 5.07143 4.57143 17.3516 4.57143 32.5C4.57143 47.6484 16.8516 59.9286 32 59.9286C47.1484 59.9286 59.4286 47.6484 59.4286 32.5C59.4286 17.3516 47.1484 5.07143 32 5.07143ZM0 32.5C0 14.8269 14.3269 0.5 32 0.5C49.6731 0.5 64 14.8269 64 32.5C64 50.1731 49.6731 64.5 32 64.5C14.3269 64.5 0 50.1731 0 32.5Z" fill="#FF8D06"/>
<path fill-rule="evenodd" clip-rule="evenodd" d="M32 14.2143C33.2624 14.2143 34.2857 15.2376 34.2857 16.5V30.2143C34.2857 31.4767 33.2624 32.5 32 32.5C30.7376 32.5 29.7143 31.4767 29.7143 30.2143V16.5C29.7143 15.2376 30.7376 14.2143 32 14.2143Z" fill="#FF8D06"/>
<path fill-rule="evenodd" clip-rule="evenodd" d="M27.4286 43.9286C27.4286 41.4038 29.4753 39.3571 32 39.3571C34.5247 39.3571 36.5714 41.4038 36.5714 43.9286C36.5714 46.4533 34.5247 48.5 32 48.5C29.4753 48.5 27.4286 46.4533 27.4286 43.9286Z" fill="#FF8D06"/>
</g>
<defs>
<clipPath id="clip0_158_13746">
<rect width="64" height="64" fill="white" transform="translate(0 0.5)"/>
</clipPath>
</defs>
</svg>
