<svg width="16" height="16" viewBox="0 0 16 16" fill="none" xmlns="http://www.w3.org/2000/svg">
<g clip-path="url(#clip0_158_13758)">
<path fill-rule="evenodd" clip-rule="evenodd" d="M1.24686e-05 2.00014C1.24686e-05 1.68455 0.25585 1.42871 0.571441 1.42871H15.4286C15.7442 1.42871 16 1.68455 16 2.00014V14.0001C16 14.3157 15.7442 14.5716 15.4286 14.5716H0.571441C0.25585 14.5716 1.24686e-05 14.3157 1.24686e-05 14.0001V2.00014ZM1.14287 2.57157V13.4287H14.8572V2.57157H1.14287Z" fill={color}/>
<path fill-rule="evenodd" clip-rule="evenodd" d="M0.134734 3.07732C0.33827 2.83613 0.698789 2.80561 0.939976 3.00915L7.63141 8.656C7.7345 8.74302 7.8651 8.79079 8.00001 8.79079C8.13493 8.79079 8.26549 8.74305 8.36859 8.65603L15.0601 3.00915C15.3012 2.80561 15.6618 2.83613 15.8653 3.07732C16.0688 3.31851 16.0383 3.67902 15.7971 3.88256L9.10573 9.52939C8.79644 9.79042 8.40473 9.93364 8.00001 9.93364C7.59529 9.93364 7.20362 9.79045 6.89434 9.52942L0.202907 3.88256C-0.03828 3.67902 -0.0688019 3.31851 0.134734 3.07732Z" fill={color}/>
</g>
<defs>
<clipPath id="clip0_158_13758">
<rect width="16" height="16" fill="white"/>
</clipPath>
</defs>
</svg>
