<svg width="16" height="16" viewBox="0 0 16 16" xmlns="http://www.w3.org/2000/svg">
<g clip-path="url(#clip0_501_1436)">
<path fill-rule="evenodd" clip-rule="evenodd" d="M7.99993 1.14286C6.78751 1.14286 5.62475 1.62449 4.76744 2.4818C3.91013 3.33911 3.4285 4.50187 3.4285 5.71429C3.4285 6.29186 3.70095 7.15693 4.17943 8.19312C4.64782 9.20743 5.27729 10.3107 5.9141 11.3374C6.54972 12.3621 7.18627 13.3004 7.66441 13.9831C7.78784 14.1593 7.90061 14.3184 7.99993 14.4573C8.09926 14.3184 8.21202 14.1593 8.33545 13.9831C8.81359 13.3004 9.45014 12.3621 10.0858 11.3374C10.7226 10.3107 11.352 9.20743 11.8204 8.19312C12.2989 7.15693 12.5714 6.29186 12.5714 5.71429C12.5714 4.50187 12.0897 3.33911 11.2324 2.4818C10.3751 1.62449 9.21235 1.14286 7.99993 1.14286ZM7.99993 15.4286C7.54251 15.7711 7.54239 15.7709 7.54239 15.7709L7.53825 15.7654L7.52667 15.7498L7.48252 15.6902C7.44407 15.6382 7.38799 15.5619 7.3168 15.464C7.17445 15.2682 6.97157 14.986 6.72831 14.6387C6.24217 13.9446 5.593 12.9879 4.9429 11.9398C4.294 10.8936 3.63776 9.74614 3.14186 8.67224C2.65606 7.62021 2.28564 6.55957 2.28564 5.71429C2.28564 4.19876 2.88768 2.74531 3.95932 1.67368C5.03096 0.602039 6.48441 0 7.99993 0C9.51545 0 10.9689 0.602039 12.0405 1.67368C13.1122 2.74531 13.7142 4.19876 13.7142 5.71429C13.7142 6.55957 13.3438 7.62021 12.858 8.67224C12.3621 9.74614 11.7059 10.8936 11.057 11.9398C10.4069 12.9879 9.7577 13.9446 9.27155 14.6387C9.02829 14.986 8.82541 15.2682 8.68306 15.464C8.61187 15.5619 8.55579 15.6382 8.51734 15.6902L8.47319 15.7498L8.46161 15.7654L8.45855 15.7695L8.45772 15.7706C8.45772 15.7706 8.45735 15.7711 7.99993 15.4286ZM7.99993 15.4286L8.45772 15.7706C8.34982 15.9147 8.17995 16 7.99993 16C7.81991 16 7.65029 15.915 7.54239 15.7709L7.99993 15.4286Z" fill={color}/>
<path fill-rule="evenodd" clip-rule="evenodd" d="M7.99993 4.57143C7.36875 4.57143 6.85707 5.0831 6.85707 5.71429C6.85707 6.34547 7.36875 6.85714 7.99993 6.85714C8.63111 6.85714 9.14279 6.34547 9.14279 5.71429C9.14279 5.0831 8.63111 4.57143 7.99993 4.57143ZM5.71422 5.71429C5.71422 4.45192 6.73757 3.42857 7.99993 3.42857C9.2623 3.42857 10.2856 4.45192 10.2856 5.71429C10.2856 6.97665 9.2623 8 7.99993 8C6.73757 8 5.71422 6.97665 5.71422 5.71429Z" fill={color}/>
</g>
<defs>
<clipPath id="clip0_501_1436">
<rect width="16" height="16"/>
</clipPath>
</defs>
</svg>
